<?xml version="1.0" encoding="utf-8"?>
<!-- Generator: Adobe Illustrator 27.0.1, SVG Export Plug-In . SVG Version: 6.00 Build 0)  -->
<svg version="1.1" id="Layer_1" xmlns="http://www.w3.org/2000/svg" xmlns:xlink="http://www.w3.org/1999/xlink" x="0px" y="0px"
	 viewBox="0 0 406.4 149.6" style="enable-background:new 0 0 406.4 149.6;" xml:space="preserve">
<style type="text/css">
	.st0{fill-rule:evenodd;clip-rule:evenodd;fill:#FFFFFF;}
	.st1{fill:#FFFFFF;}
</style>
<g>
	<g>
		<path class="st0" d="M294.5,69.1c0.1-0.1,0.3-0.2,0.4-0.3c3.2-3.2,6.5-6.5,9.7-9.7c3.3-3.4,6.7-6.7,10-10.1
			c0.1-0.1,0.2-0.3,0.3-0.4c2.6,2.7,5.2,5.3,7.8,7.9c-0.1,0.1-0.3,0.3-0.4,0.4c-5.5,5.5-11,11-16.5,16.6c-0.3,0.3-0.4,0.5-0.4,0.9
			c0,19.4,0,38.7,0,58.1c0,0.2,0,0.3,0,0.5c3.6,0,7.1,0,10.7,0c0-0.5,0-1.1,0-1.6s0-1.1,0-1.6s0-1.1,0-1.6s0-1,0-1.6
			c0-0.5,0-1.1,0-1.6s0-1.1,0-1.6c0.4-0.1,10.3-0.1,11,0c0,1.1,0,2.1,0,3.2s0,2.1,0,3.2s0,2.1,0,3.2c1.8,0,3.6,0,5.4,0
			c0-5.3,0-10.5,0-15.7c0.4-0.1,10.5-0.1,11,0c0,5.2,0,10.5,0,15.7c1.8,0,3.5,0,5.3,0c0-1.2,0-2.4,0-3.6c0-1.2,0-2.4,0-3.6
			s0-2.4,0-3.7c0-1.2,0-2.4,0-3.6s0-2.4,0-3.7c0-1.2,0-2.4,0-3.7c0.9-0.1,1.9,0,2.8,0s1.8,0,2.7,0c0.9,0,1.8,0,2.8,0
			c0.9,0,1.8,0,2.8,0c0,1.5,0,2.9,0,4.4s0,2.9,0,4.4s0,2.9,0,4.4s0,2.9,0,4.4s0,2.9,0,4.4c3.5,0,6.9,0,10.4,0c0-0.7,0-1.4,0-2
			c0-0.7,0-1.4,0-2c0-0.7,0-1.4,0-2c0-0.7,0-1.4,0-2c0-0.7,0-1.4,0-2c0-0.7,0-1.4,0-2c0-0.7,0-1.4,0-2c0-0.7,0-1.4,0-2s0-1.4,0-2
			c0-0.7,0-1.4,0-2c0-0.7,0-1.4,0-2c0-0.7,0-1.4,0-2c0-0.7,0-1.4,0-2.1c3.7,0,7.3,0,10.9,0l0,0l0,0c0,0.1,0,0.2,0,0.2
			c0,12.4,0,24.9,0,37.3c-0.1,0-0.2,0.1-0.3,0.1c-0.2,0-0.3,0-0.5,0c-28.5,0-57,0-85.4,0c-0.2,0-0.5,0-0.7,0
			C294.5,119,294.5,94.1,294.5,69.1z"/>
		<path class="st0" d="M402.7,144c-3.6,0-7.3,0-11,0c0-0.1,0-0.3,0-0.4c0-0.2,0-0.3,0-0.5c0-22.9,0-45.8,0-68.6
			c0-0.5-0.1-0.9-0.5-1.3c-5.5-5.5-10.9-11-16.4-16.5c-0.1-0.1-0.2-0.2-0.3-0.3c2.6-2.6,5.1-5.2,7.7-7.8c0.1,0.1,0.2,0.2,0.3,0.3
			c6.7,6.7,13.3,13.4,20,20.1c0,0,0.1,0,0.1,0.1C402.7,94.1,402.7,119,402.7,144z"/>
		<path class="st0" d="M344.4,4c-0.1,0.1-0.3,0.2-0.4,0.3c-5.1,3.5-8.3,8.2-9.3,14.3c-1.9,11.2,5.2,21.8,16.2,24.3
			c9,2.1,18.3-2.2,22.9-10.3c0.7-1.2,1.2-2.4,1.7-3.7c0-0.1,0.1-0.2,0.1-0.4c0,0,0,0,0.1-0.1c0,0.2,0.1,0.4,0.1,0.6
			c0.2,4-0.2,7.8-1.6,11.5c-3.2,8.7-10.5,15.2-19.6,17.3c-2.5,0.6-5.1,0.8-7.6,0.6c-11.9-0.7-22.2-9.2-24.9-21.2
			c-3.5-15,5.8-29.2,19.7-32.9c0.8-0.2,1.5-0.3,2.3-0.5C344.1,4,344.2,4,344.4,4C344.3,4,344.3,4,344.4,4z"/>
		<path class="st0" d="M355.5,6c7.6,0,14.3,5.5,15.7,13c1.6,8.3-3.3,16.3-11.3,18.6c-7.7,2.3-15.9-1.6-19.1-9.1
			c-3.7-8.7,0.8-18.8,9.7-21.8C352.1,6.3,353.8,6,355.5,6z"/>
		<path class="st0" d="M369.3,95.6c0-4.1,3.5-6.7,6.6-6.7c3.8,0,6.8,3,6.8,6.7s-3,6.8-6.7,6.7C372,102.2,369.2,99.1,369.3,95.6z"/>
	</g>
	<g>
		<path class="st1" d="M6,125.7h3.3c-0.1-1.3-0.3-2.5-0.4-3.5c-0.1-0.4-0.1-0.9-0.1-1.3s-0.1-0.8-0.1-1.2c0-0.3-0.1-0.6-0.1-0.9
			c0-0.2,0-0.4,0-0.4c0-0.4,1.2-0.6,3.5-0.6H16c0.3,0,0.6-0.1,0.9-0.3c0.3-0.2,0.6-0.5,0.9-0.8s0.5-0.7,0.6-1.1
			c0.2-0.4,0.3-0.8,0.3-1.2c0-0.6-0.1-1.2-0.3-2c-0.2-0.7-0.5-1.4-1-2.1c-0.4-0.7-1-1.2-1.6-1.7s-1.4-0.7-2.2-0.7s-1.6,0.2-2.1,0.6
			s-1.1,1-1.4,1.6s-0.6,1.4-0.8,2.2c-0.2,0.8-0.3,1.5-0.3,2.2c-0.2,0-0.4,0.1-0.5,0.1c-0.2,0.1-0.3,0.1-0.5,0.2
			c-0.9,0.3-1.5,0.8-1.9,1.5s-0.6,1.4-0.6,2.1c0,0.1,0,0.4,0,0.6c0,0.3,0,0.6,0.1,1c0,0.3,0.1,0.7,0.1,1.1s0.1,0.8,0.2,1.4
			C5.8,123.5,5.9,124.6,6,125.7z M10.8,113.1c0.1-0.4,0.3-0.7,0.4-1c0.2-0.3,0.4-0.5,0.7-0.7s0.6-0.2,1-0.2s0.7,0.1,1.1,0.2
			c0.3,0.2,0.6,0.4,0.9,0.6c0.3,0.3,0.5,0.6,0.7,0.9c0.2,0.4,0.4,0.7,0.6,1.1h-3.6c-0.2,0-0.5,0-0.8,0s-0.7,0-1.1,0.1
			C10.6,113.9,10.7,113.5,10.8,113.1z"/>
		<path class="st1" d="M26.3,117.7c0.8,0,1.5-0.1,2-0.2c0.5-0.2,1-0.4,1.3-0.7c0.2-0.1,0.3-0.2,0.4-0.3c0.1-0.1,0.2-0.3,0.3-0.4
			c0.5,0.7,1.2,1.2,2,1.4c0.8,0.2,1.6,0.3,2.5,0.3l0,0l0,0c0.9,0,1.6-0.1,2.3-0.3c0.7-0.2,1.2-0.5,1.6-0.8c0.4-0.4,0.8-0.9,1.2-1.6
			c0.3-0.7,0.5-1.5,0.5-2.5c0-0.4,0-0.8-0.1-1.3c0-0.5-0.1-1-0.2-1.4c-0.1-0.5-0.1-1-0.2-1.5c-0.1-0.5-0.2-0.9-0.2-1.3l-3.1,0.6
			c0.2,1.3,0.4,2.5,0.5,3.5s0.2,1.8,0.2,2.2c0,0.2-0.2,0.4-0.5,0.6c-0.4,0.2-1,0.3-2.1,0.3l0,0l0,0c-0.5,0-1,0-1.6-0.1
			c-0.5-0.1-1-0.2-1.3-0.4l0.4-4.7h-3c0,0.2,0,0.5-0.1,0.9c0,0.4-0.1,0.8-0.1,1.2c0,0.4-0.1,0.8-0.1,1.2c-0.1,0.4-0.1,0.7-0.1,0.9
			c0,0.1-0.1,0.2-0.2,0.3c-0.1,0.1-0.2,0.2-0.4,0.3c-0.2,0.1-0.4,0.2-0.8,0.2c-0.3,0.1-0.7,0.1-1.2,0.1s-0.9,0-1.2-0.1
			c-0.3-0.1-0.6-0.2-0.8-0.4c-0.2-0.2-0.3-0.4-0.4-0.8c-0.1-0.3-0.1-0.7-0.1-1.3V99.3l-3.1,0.2v10.3c0,1.5,0.1,2.8,0.3,3.8
			c0.2,1,0.5,1.8,0.9,2.4s0.9,1,1.6,1.3c0.6,0.3,1.4,0.4,2.2,0.4L26.3,117.7L26.3,117.7z"/>
		<path class="st1" d="M28.6,106.9c0.2,0.2,0.4,0.4,0.6,0.6c0.2-0.1,0.3-0.3,0.5-0.5c0.1-0.1,0.3-0.3,0.5-0.5s0.4-0.4,0.5-0.6
			c0.2,0.2,0.4,0.4,0.5,0.6c0.2,0.2,0.3,0.3,0.5,0.5s0.3,0.3,0.5,0.5c0.2-0.2,0.4-0.4,0.6-0.6c0.2-0.2,0.4-0.4,0.6-0.6
			s0.4-0.5,0.6-0.7c-0.2-0.3-0.4-0.5-0.6-0.7c-0.2-0.2-0.4-0.4-0.6-0.6c-0.2-0.2-0.4-0.4-0.6-0.6c-0.2,0.1-0.3,0.3-0.5,0.5
			c-0.2,0.1-0.3,0.3-0.5,0.5s-0.4,0.4-0.5,0.6c-0.2-0.2-0.4-0.4-0.5-0.6c-0.2-0.2-0.3-0.3-0.5-0.5s-0.3-0.3-0.5-0.5
			c-0.2,0.2-0.4,0.4-0.6,0.6s-0.4,0.4-0.6,0.6s-0.4,0.5-0.6,0.7c0.2,0.3,0.4,0.5,0.6,0.7S28.4,106.7,28.6,106.9z"/>
		<path class="st1" d="M35.3,121.9c0.2,0.2,0.4,0.4,0.6,0.6c0.2-0.1,0.3-0.3,0.5-0.5c0.2-0.1,0.3-0.3,0.5-0.5s0.4-0.4,0.5-0.6
			c0.2,0.2,0.3,0.4,0.5,0.6s0.3,0.3,0.5,0.5s0.3,0.3,0.5,0.5c0.2-0.2,0.4-0.4,0.6-0.6c0.2-0.2,0.4-0.4,0.6-0.6
			c0.2-0.2,0.4-0.5,0.6-0.7c-0.2-0.3-0.4-0.5-0.6-0.7c-0.2-0.2-0.4-0.4-0.6-0.6c-0.2-0.2-0.4-0.4-0.6-0.6c-0.2,0.1-0.3,0.3-0.5,0.5
			c-0.1,0.1-0.3,0.3-0.5,0.5s-0.3,0.4-0.5,0.6c-0.2-0.2-0.4-0.4-0.5-0.6c-0.2-0.2-0.3-0.3-0.5-0.5s-0.3-0.3-0.5-0.5
			c-0.2,0.2-0.4,0.4-0.6,0.6c-0.2,0.2-0.4,0.4-0.6,0.6c-0.2,0.2-0.4,0.4-0.6,0.7c0.2,0.2,0.4,0.5,0.6,0.7
			C34.9,121.5,35.1,121.7,35.3,121.9z"/>
		<path class="st1" d="M48.3,101.3v-1.9c-0.3,0.1-0.6,0.2-1,0.2c-0.4,0.1-0.8,0.1-1.1,0.1c-0.5,0-0.8-0.1-1-0.2
			c-0.2-0.2-0.3-0.3-0.3-0.4s0.1-0.2,0.3-0.4c0.2-0.2,0.5-0.3,0.8-0.3s0.5,0,0.7,0.1s0.4,0.2,0.5,0.3l0.3-1.7
			c-0.1-0.2-0.3-0.3-0.6-0.4c-0.2-0.1-0.5-0.2-0.8-0.2s-0.6,0.1-0.9,0.2c-0.3,0.1-0.5,0.3-0.7,0.5S44.1,97.7,44,98s-0.2,0.6-0.2,0.9
			c0,0.2,0,0.4,0.1,0.6s0.1,0.3,0.2,0.4c-0.1,0-0.2,0-0.4,0s-0.3,0-0.4,0v1.8c1.1,0,2.1-0.1,3-0.2C47.2,101.5,47.9,101.3,48.3,101.3
			z"/>
		<path class="st1" d="M48.4,117.8c1.8,0,3.3-0.3,4.2-0.9c1-0.6,1.5-1.7,1.5-3.3c0-0.6-0.2-1.3-0.5-1.9c-0.3-0.7-0.7-1.3-1.2-1.9
			c0.5-0.6,1-1.3,1.3-2.2c0.4-0.9,0.5-2,0.5-3.4v-4.7l-3.1,0.2v5.4c0,0.7,0,1.3-0.1,1.8s-0.2,0.9-0.3,1.3c-1.1-1-2.4-2-3.8-3
			c-1.4-1-2.8-1.9-4.2-2.8l-1,3.4c1.6,0.9,3,1.8,4.2,2.6c1.2,0.8,2.2,1.5,3.1,2.2c-0.4,0.3-0.8,0.7-1.3,1c-0.5,0.4-1,0.7-1.6,1.1
			c-0.5,0.4-1,0.7-1.5,1s-0.8,0.5-1.1,0.7l-0.5,3.4c0.3,0.1,0.6,0.1,1.1,0.1s1,0,1.5,0.1c0.5,0,1.1,0,1.6,0S48.2,117.8,48.4,117.8z
			 M48.5,113c0.7-0.5,1.4-1,2-1.4c0.5,0.5,0.9,0.9,1,1.2c0.2,0.3,0.3,0.6,0.3,0.8c0,0.2-0.3,0.4-0.9,0.5c-0.6,0.1-1.3,0.2-2.1,0.2
			c-0.4,0-0.8,0-1.3,0c-0.4,0-0.8,0-1.2,0C47,113.9,47.7,113.5,48.5,113z"/>
		<polygon class="st1" points="59.9,99.3 56.7,99.5 56.7,117.7 59.9,117.7 		"/>
		<path class="st1" d="M71.6,102.9c0.2,0.2,0.4,0.4,0.6,0.6c0.2-0.1,0.3-0.3,0.5-0.5c0.1-0.1,0.3-0.3,0.5-0.5s0.4-0.4,0.5-0.6
			c0.2,0.2,0.4,0.4,0.5,0.6c0.2,0.2,0.3,0.3,0.5,0.5s0.3,0.3,0.5,0.5c0.2-0.2,0.4-0.4,0.6-0.6s0.4-0.4,0.6-0.6s0.4-0.5,0.6-0.7
			c-0.2-0.3-0.4-0.5-0.6-0.7s-0.4-0.4-0.6-0.6s-0.4-0.4-0.6-0.6c-0.2,0.1-0.3,0.3-0.5,0.5c-0.2,0.1-0.3,0.3-0.5,0.5
			s-0.4,0.4-0.5,0.6c-0.2-0.2-0.4-0.4-0.5-0.6c-0.2-0.2-0.3-0.3-0.5-0.5s-0.3-0.3-0.5-0.5c-0.2,0.2-0.4,0.4-0.6,0.6
			s-0.4,0.4-0.6,0.6s-0.4,0.5-0.6,0.7c0.2,0.3,0.4,0.5,0.6,0.7C71.2,102.6,71.4,102.8,71.6,102.9z"/>
		<path class="st1" d="M79.6,117.7L79.6,117.7c0.1,0,0.1,0,0.2,0h0.1H80c0.7,0,1.4-0.1,1.9-0.3c0.7-0.2,1.2-0.5,1.6-0.8
			c0.4-0.4,0.8-0.9,1.2-1.6s0.5-1.5,0.5-2.5c0-0.4,0-0.8-0.1-1.3c0-0.5-0.1-1-0.2-1.4c-0.1-0.5-0.1-1-0.2-1.5s-0.2-0.9-0.2-1.3
			l-3.1,0.6c0.2,1.3,0.4,2.5,0.5,3.5s0.2,1.8,0.2,2.2c0,0.2-0.2,0.4-0.5,0.6s-1,0.3-1.9,0.3c-0.5,0-0.9-0.1-1.2-0.2
			c-0.3-0.1-0.6-0.3-0.8-0.5c-0.2-0.2-0.3-0.5-0.4-0.9c-0.1-0.3-0.1-0.7-0.1-1.2v-7.1l-3,0.2v1.6c-0.5,0.2-1,0.5-1.6,0.7
			c-0.5,0.3-1,0.6-1.5,0.9s-0.9,0.7-1.4,1c-0.4,0.4-0.8,0.8-1.1,1.2c-0.2,0.3-0.4,0.7-0.5,1c-0.1,0.4-0.1,0.8-0.1,1.2
			c0,0.4,0,0.8,0.1,1.2c0.1,0.4,0.2,0.7,0.4,1c0.3,0.5,0.8,0.9,1.3,1.2c0.6,0.3,1.2,0.4,2,0.4s1.5-0.1,2-0.3
			c0.5-0.2,0.9-0.4,1.1-0.6c0.4,0.9,0.9,1.5,1.7,2C77.5,117.5,78.5,117.7,79.6,117.7z M73.6,112.5c-0.4,0.1-0.8,0.1-1.3,0.1
			c-0.6,0-1.1-0.1-1.5-0.2c-0.4-0.2-0.6-0.3-0.6-0.5s0.3-0.6,1-1.1s1.8-1,3.2-1.5c0,0.3,0,0.5,0,0.8c0,0.2,0,0.4,0,0.6
			c0,0.3,0,0.6,0,0.8c0,0.3,0,0.5,0.1,0.8C74.3,112.4,74,112.4,73.6,112.5z"/>
		<path class="st1" d="M84.4,119.4c-0.2-0.2-0.4-0.4-0.6-0.6c-0.2,0.1-0.3,0.3-0.5,0.5c-0.1,0.1-0.3,0.3-0.5,0.5s-0.3,0.4-0.5,0.6
			c-0.2-0.2-0.4-0.4-0.5-0.6c-0.2-0.2-0.3-0.3-0.5-0.5s-0.3-0.3-0.5-0.5c-0.2,0.2-0.4,0.4-0.6,0.6s-0.4,0.4-0.6,0.6
			s-0.4,0.4-0.6,0.7c0.2,0.2,0.4,0.5,0.6,0.7s0.4,0.4,0.6,0.6s0.4,0.4,0.6,0.6c0.2-0.1,0.3-0.3,0.5-0.5c0.2-0.1,0.3-0.3,0.5-0.5
			s0.4-0.4,0.5-0.6c0.2,0.2,0.3,0.4,0.5,0.6s0.3,0.3,0.5,0.5s0.3,0.3,0.5,0.5c0.2-0.2,0.4-0.4,0.6-0.6s0.4-0.4,0.6-0.6
			s0.4-0.5,0.6-0.7c-0.2-0.3-0.4-0.5-0.6-0.7C84.8,119.7,84.6,119.5,84.4,119.4z"/>
		<path class="st1" d="M88.6,116.1c0.4,0.6,0.9,1,1.6,1.3c0.6,0.3,1.4,0.4,2.2,0.4h0.7h1c1.1,0,2.1,0,3.1-0.1s2-0.2,2.9-0.3
			c0.9-0.2,1.8-0.3,2.6-0.6c0.8-0.2,1.5-0.5,2.1-0.8l-0.1-3.4c-0.3,0.1-0.6,0.2-0.9,0.3c-0.4,0.1-0.8,0.2-1.2,0.3
			c-0.4,0.1-0.9,0.2-1.4,0.3c-0.5,0.1-0.9,0.1-1.4,0.1c-0.6,0-1-0.1-1.4-0.2c-0.4-0.2-0.7-0.3-0.9-0.5c-0.2-0.2-0.4-0.4-0.5-0.6
			s-0.1-0.4-0.1-0.5c0-0.2,0.1-0.4,0.2-0.7c0.1-0.2,0.3-0.4,0.6-0.6c0.3-0.2,0.6-0.3,0.9-0.5c0.4-0.1,0.8-0.2,1.2-0.2
			c0.6,0,1.2,0.1,1.6,0.3c0.5,0.2,0.8,0.3,1.1,0.5l0.3-3.1c-0.2-0.2-0.6-0.5-1.1-0.8s-1.2-0.4-1.9-0.4c-0.8,0-1.5,0.2-2.1,0.5
			s-1.2,0.7-1.7,1.2s-0.8,1.1-1.1,1.7c-0.3,0.7-0.4,1.3-0.4,2.1c0,0.9,0.3,1.8,0.8,2.6c-0.1,0-0.3,0-0.4,0s-0.3,0-0.4,0h-1.4
			c-0.5,0-0.9,0-1.2-0.1c-0.3-0.1-0.6-0.2-0.8-0.4c-0.2-0.2-0.3-0.4-0.4-0.8c-0.1-0.3-0.1-0.7-0.1-1.3V99.3l-3.1,0.2v10.3
			c0,1.5,0.1,2.8,0.3,3.8C87.9,114.6,88.2,115.4,88.6,116.1z"/>
		<path class="st1" d="M104.1,119.1l0.2,3.4c0.1,0.1,0.3,0.2,0.5,0.2c0.2,0.1,0.4,0.1,0.6,0.1s0.5,0.1,0.8,0.1c1,0,1.9-0.2,2.6-0.6
			s1.3-0.9,1.8-1.5s0.9-1.3,1.2-2c0.3-0.7,0.5-1.4,0.6-2c0-0.1,0.1-0.3,0.1-0.3c0.4,0.4,0.8,0.6,1.3,0.8c0.5,0.2,1.1,0.3,1.8,0.3
			l0,0l0,0c1,0,1.7-0.1,2.3-0.3c0.6-0.2,1-0.4,1.3-0.7c0.6-0.4,1-1.1,1.4-1.9s0.6-1.9,0.6-3.2V99.3l-3.1,0.2v13.8
			c0,0.3-0.2,0.5-0.5,0.6c-0.4,0.1-1,0.2-1.9,0.2l0,0l0,0c-0.6,0-1-0.1-1.4-0.2s-0.7-0.3-0.9-0.5c-0.2-0.2-0.4-0.4-0.6-0.7
			c-0.1-0.3-0.3-0.6-0.4-0.9l-0.6-2.8l-3.1,0.5c0.3,1.4,0.6,2.5,0.8,3.4c0.2,0.8,0.3,1.4,0.3,1.6c0,0.6-0.1,1.2-0.2,1.7
			c-0.2,0.6-0.4,1.1-0.7,1.5c-0.3,0.4-0.7,0.8-1.2,1.1c-0.5,0.3-1.1,0.4-1.8,0.4c-0.5,0-1,0-1.3-0.1
			C104.4,119.2,104.2,119.2,104.1,119.1z"/>
		<path class="st1" d="M133,102.9c0.2,0.2,0.4,0.4,0.6,0.6c0.2-0.1,0.3-0.3,0.5-0.5c0.1-0.1,0.3-0.3,0.5-0.5s0.4-0.4,0.5-0.6
			c0.2,0.2,0.4,0.4,0.5,0.6c0.2,0.2,0.3,0.3,0.5,0.5s0.3,0.3,0.5,0.5c0.2-0.2,0.4-0.4,0.6-0.6c0.2-0.2,0.4-0.4,0.6-0.6
			s0.4-0.5,0.6-0.7c-0.2-0.3-0.4-0.5-0.6-0.7c-0.2-0.2-0.4-0.4-0.6-0.6c-0.2-0.2-0.4-0.4-0.6-0.6c-0.2,0.1-0.3,0.3-0.5,0.5
			c-0.2,0.1-0.3,0.3-0.5,0.5s-0.4,0.4-0.5,0.6c-0.2-0.2-0.4-0.4-0.5-0.6c-0.2-0.2-0.3-0.3-0.5-0.5s-0.3-0.3-0.5-0.5
			c-0.2,0.2-0.4,0.4-0.6,0.6c-0.2,0.2-0.4,0.4-0.6,0.6c-0.2,0.2-0.4,0.5-0.6,0.7c0.2,0.3,0.4,0.5,0.6,0.7
			C132.6,102.6,132.8,102.8,133,102.9z"/>
		<path class="st1" d="M141.1,117.7L141.1,117.7c0.1,0,0.1,0,0.2,0h0.1h0.1c0.7,0,1.4-0.1,1.9-0.3c0.7-0.2,1.2-0.5,1.6-0.8
			c0.4-0.4,0.8-0.9,1.2-1.6c0.3-0.7,0.5-1.5,0.5-2.5c0-0.4,0-0.8-0.1-1.3c0-0.5-0.1-1-0.2-1.4c-0.1-0.5-0.1-1-0.2-1.5
			c-0.1-0.5-0.2-0.9-0.2-1.3l-3.1,0.6c0.2,1.3,0.4,2.5,0.5,3.5s0.2,1.8,0.2,2.2c0,0.2-0.2,0.4-0.5,0.6s-1,0.3-1.9,0.3
			c-0.5,0-0.9-0.1-1.2-0.2s-0.6-0.3-0.8-0.5s-0.3-0.5-0.4-0.9c-0.1-0.3-0.1-0.7-0.1-1.2v-7.1l-3,0.2v1.6c-0.5,0.2-1,0.5-1.6,0.7
			c-0.5,0.3-1,0.6-1.5,0.9s-0.9,0.7-1.4,1c-0.4,0.4-0.8,0.8-1.1,1.2c-0.2,0.3-0.4,0.7-0.5,1c-0.1,0.4-0.1,0.8-0.1,1.2
			c0,0.4,0,0.8,0.1,1.2c0.1,0.4,0.2,0.7,0.4,1c0.3,0.5,0.8,0.9,1.3,1.2c0.6,0.3,1.2,0.4,2,0.4s1.5-0.1,2-0.3
			c0.5-0.2,0.9-0.4,1.1-0.6c0.4,0.9,0.9,1.5,1.7,2C139,117.5,139.9,117.7,141.1,117.7z M135.1,112.5c-0.4,0.1-0.8,0.1-1.3,0.1
			c-0.6,0-1.1-0.1-1.5-0.2c-0.4-0.2-0.6-0.3-0.6-0.5s0.3-0.6,1-1.1s1.8-1,3.2-1.5c0,0.3,0,0.5,0,0.8c0,0.2,0,0.4,0,0.6
			c0,0.3,0,0.6,0,0.8c0,0.3,0,0.5,0.1,0.8C135.7,112.4,135.4,112.4,135.1,112.5z"/>
		<path class="st1" d="M145.9,119.4c-0.2-0.2-0.4-0.4-0.6-0.6c-0.2,0.1-0.3,0.3-0.5,0.5c-0.1,0.1-0.3,0.3-0.5,0.5s-0.3,0.4-0.5,0.6
			c-0.2-0.2-0.4-0.4-0.5-0.6c-0.2-0.2-0.3-0.3-0.5-0.5s-0.3-0.3-0.5-0.5c-0.2,0.2-0.4,0.4-0.6,0.6c-0.2,0.2-0.4,0.4-0.6,0.6
			c-0.2,0.2-0.4,0.4-0.6,0.7c0.2,0.2,0.4,0.5,0.6,0.7c0.2,0.2,0.4,0.4,0.6,0.6c0.2,0.2,0.4,0.4,0.6,0.6c0.2-0.1,0.3-0.3,0.5-0.5
			c0.2-0.1,0.3-0.3,0.5-0.5s0.4-0.4,0.5-0.6c0.2,0.2,0.3,0.4,0.5,0.6s0.3,0.3,0.5,0.5s0.3,0.3,0.5,0.5c0.2-0.2,0.4-0.4,0.6-0.6
			c0.2-0.2,0.4-0.4,0.6-0.6c0.2-0.2,0.4-0.5,0.6-0.7c-0.2-0.3-0.4-0.5-0.6-0.7C146.3,119.7,146.1,119.5,145.9,119.4z"/>
		<path class="st1" d="M158.8,122.2c0.2-0.1,0.3-0.3,0.5-0.5c0.2-0.1,0.3-0.3,0.5-0.5s0.4-0.4,0.5-0.6c0.2,0.2,0.3,0.4,0.5,0.6
			s0.3,0.3,0.5,0.5s0.3,0.3,0.5,0.5c0.2-0.2,0.4-0.4,0.6-0.6c0.2-0.2,0.4-0.4,0.6-0.6c0.2-0.2,0.4-0.5,0.6-0.7
			c-0.2-0.3-0.4-0.5-0.6-0.7s-0.4-0.4-0.6-0.6c-0.2-0.2-0.4-0.4-0.6-0.6c-0.2,0.1-0.3,0.3-0.5,0.5c-0.1,0.1-0.3,0.3-0.5,0.5
			s-0.3,0.4-0.5,0.6c-0.2-0.2-0.4-0.4-0.5-0.6c-0.2-0.2-0.3-0.3-0.5-0.5s-0.3-0.3-0.5-0.5c-0.2,0.2-0.4,0.4-0.6,0.6
			c-0.2,0.2-0.4,0.4-0.6,0.6c-0.2,0.2-0.4,0.4-0.6,0.7c0.2,0.2,0.4,0.5,0.6,0.7c0.2,0.2,0.4,0.4,0.6,0.6
			C158.3,121.9,158.5,122.1,158.8,122.2z"/>
		<path class="st1" d="M172.6,105.9c0.2,0.2,0.4,0.4,0.7,0.6c0.2-0.2,0.5-0.4,0.7-0.6s0.4-0.4,0.6-0.6c0.2-0.2,0.5-0.5,0.7-0.8
			c-0.2-0.3-0.4-0.5-0.7-0.8c-0.2-0.2-0.4-0.5-0.6-0.7c-0.2-0.2-0.5-0.4-0.7-0.6c-0.2,0.2-0.5,0.4-0.7,0.6s-0.4,0.4-0.6,0.6
			c-0.2,0.3-0.4,0.5-0.6,0.8c0.2,0.3,0.4,0.5,0.6,0.8C172.1,105.5,172.3,105.8,172.6,105.9z"/>
		<path class="st1" d="M182.1,117.7h0.5c1,0,1.7-0.1,2.3-0.3s1-0.4,1.3-0.7c0.6-0.4,1-1.1,1.4-1.9s0.6-1.9,0.6-3.2V99.3l-3.1,0.2
			v13.8c0,0.3-0.2,0.5-0.5,0.6c-0.4,0.1-1,0.2-1.9,0.2h-0.4c-0.9,0-1.6-0.1-2-0.4c-0.4-0.2-0.7-0.5-0.9-0.8h0.2h1.2l0.3-3.3h-1.4
			c-1.1,0-2.1-0.1-3-0.2c-0.8-0.2-1.7-0.4-2.5-0.8c-0.9-0.4-1.7-0.7-2.5-1s-1.6-0.4-2.5-0.4c-0.5,0-0.9,0-1.3,0.1
			c-0.4,0.1-0.7,0.2-1,0.4c-0.3,0.1-0.6,0.3-0.9,0.5v3.1c0.3-0.1,0.6-0.2,0.9-0.3c0.3-0.1,0.6-0.2,0.9-0.2c0.3-0.1,0.7-0.1,1.1-0.1
			c0.7,0,1.5,0.1,2.2,0.4c0.8,0.3,1.5,0.6,2.3,1c0.1,0,0.2,0.1,0.3,0.1s0.2,0.1,0.3,0.1c-0.4,0.1-0.7,0.3-1.1,0.4
			c-0.4,0.2-0.7,0.3-1,0.4c-0.9,0.4-2,0.7-3.1,0.8c-1.1,0.2-2.4,0.3-3.8,0.3h-0.3h-0.6c-0.4,0-0.7-0.1-0.9-0.2s-0.4-0.3-0.5-0.5
			s-0.2-0.5-0.2-0.8s0-0.7-0.1-1.2l-0.1-3.6l-3,0.2v1.2c-0.1,0.1-0.1,0.2-0.2,0.4c-0.1,0.1-0.3,0.3-0.5,0.4s-0.5,0.2-0.8,0.3
			c-0.3,0.1-0.8,0.1-1.3,0.1s-0.9-0.1-1.1-0.2c-0.2-0.1-0.5-0.4-0.7-0.8c-0.1-0.2-0.1-0.3-0.1-0.4s-0.1-0.3-0.1-0.4
			s-0.1-0.2-0.1-0.3l-3.1,0.6c0.5,1.8,0.9,3.1,1.2,4s0.4,1.5,0.4,1.8c0,0.6-0.1,1.2-0.2,1.7c-0.2,0.6-0.4,1.1-0.7,1.5
			s-0.7,0.8-1.2,1.1c-0.5,0.3-1.1,0.4-1.8,0.4c-0.5,0-1,0-1.3-0.1s-0.5-0.1-0.6-0.2l0.2,3.4c0.1,0.1,0.3,0.2,0.5,0.2
			c0.2,0.1,0.4,0.1,0.6,0.1c0.2,0,0.5,0.1,0.8,0.1c1,0,1.9-0.2,2.6-0.6c0.7-0.4,1.3-0.9,1.8-1.5s0.9-1.3,1.2-2s0.5-1.4,0.6-2
			s0.2-1.2,0.2-1.7c0-0.6,0-1.1,0-1.6l0,0c0.3,0.1,0.7,0.2,1.1,0.2c0.6,0,1.1-0.1,1.6-0.3c0.5-0.2,0.9-0.5,1.2-0.9
			c0.1,1.7,0.5,2.9,1.1,3.8c0.7,0.8,1.8,1.3,3.4,1.3h0.6h0.3c0.8,0,1.6,0,2.3-0.1s1.4-0.2,2-0.4c0.6-0.2,1.3-0.4,1.9-0.7
			c0.6-0.3,1.2-0.6,1.9-1c0.9-0.5,1.7-1,2.5-1.4s1.5-0.7,2.2-0.9c0,0.6,0.1,1.2,0.3,1.8c0.2,0.6,0.4,1,0.7,1.4s0.8,0.7,1.3,1
			C180.7,117.6,181.4,117.7,182.1,117.7z"/>
		<polygon class="st1" points="193.9,99.3 190.8,99.5 190.8,117.7 193.9,117.7 		"/>
		<path class="st1" d="M205.6,102.9c0.2,0.2,0.4,0.4,0.6,0.6c0.2-0.1,0.3-0.3,0.5-0.5c0.1-0.1,0.3-0.3,0.5-0.5s0.4-0.4,0.5-0.6
			c0.2,0.2,0.4,0.4,0.5,0.6c0.2,0.2,0.3,0.3,0.5,0.5s0.3,0.3,0.5,0.5c0.2-0.2,0.4-0.4,0.6-0.6c0.2-0.2,0.4-0.4,0.6-0.6
			c0.2-0.2,0.4-0.5,0.6-0.7c-0.2-0.3-0.4-0.5-0.6-0.7c-0.2-0.2-0.4-0.4-0.6-0.6c-0.2-0.2-0.4-0.4-0.6-0.6c-0.2,0.1-0.3,0.3-0.5,0.5
			c-0.2,0.1-0.3,0.3-0.5,0.5s-0.4,0.4-0.5,0.6c-0.2-0.2-0.4-0.4-0.5-0.6c-0.2-0.2-0.3-0.3-0.5-0.5s-0.3-0.3-0.5-0.5
			c-0.2,0.2-0.4,0.4-0.6,0.6c-0.2,0.2-0.4,0.4-0.6,0.6c-0.2,0.2-0.4,0.5-0.6,0.7c0.2,0.3,0.4,0.5,0.6,0.7
			C205.2,102.6,205.4,102.8,205.6,102.9z"/>
		<path class="st1" d="M217.8,121.2c0.2,0.2,0.3,0.4,0.5,0.6s0.3,0.3,0.5,0.5s0.3,0.3,0.5,0.5c0.2-0.2,0.4-0.4,0.6-0.6
			c0.2-0.2,0.4-0.4,0.6-0.6c0.2-0.2,0.4-0.5,0.6-0.7c-0.2-0.3-0.4-0.5-0.6-0.7c-0.2-0.2-0.4-0.4-0.6-0.6c-0.2-0.2-0.4-0.4-0.6-0.6
			c-0.2,0.1-0.3,0.3-0.5,0.5c-0.1,0.1-0.3,0.3-0.5,0.5s-0.3,0.4-0.5,0.6c-0.2-0.2-0.4-0.4-0.5-0.6c-0.2-0.2-0.3-0.3-0.5-0.5
			s-0.3-0.3-0.5-0.5c-0.2,0.2-0.4,0.4-0.6,0.6c-0.2,0.2-0.4,0.4-0.6,0.6c-0.2,0.2-0.4,0.4-0.6,0.7c0.2,0.2,0.4,0.5,0.6,0.7
			c0.2,0.2,0.4,0.4,0.6,0.6c0.2,0.2,0.4,0.4,0.6,0.6c0.2-0.1,0.3-0.3,0.5-0.5c0.2-0.1,0.3-0.3,0.5-0.5
			C217.4,121.6,217.6,121.4,217.8,121.2z"/>
		<path class="st1" d="M261,119.8c0.2,0.2,0.4,0.4,0.7,0.6c0.2-0.2,0.5-0.4,0.7-0.6s0.4-0.4,0.6-0.6s0.5-0.5,0.7-0.8
			c-0.2-0.3-0.4-0.5-0.7-0.8c-0.2-0.2-0.4-0.5-0.6-0.7s-0.5-0.4-0.7-0.6c-0.2,0.2-0.5,0.4-0.7,0.6s-0.4,0.4-0.6,0.6
			c-0.2,0.3-0.4,0.5-0.6,0.8c0.2,0.3,0.4,0.5,0.6,0.8C260.6,119.3,260.8,119.6,261,119.8z"/>
		<path class="st1" d="M271.4,113.3c0,0.3-0.2,0.5-0.5,0.6c-0.4,0.1-1,0.2-1.9,0.2h-0.4c-0.9,0-1.6-0.1-2-0.4
			c-0.4-0.2-0.7-0.5-0.9-0.8h0.2h1.2l0.3-3.3H266c-1.1,0-2.1-0.1-3-0.2c-0.8-0.2-1.7-0.4-2.5-0.8c-0.9-0.4-1.7-0.7-2.5-1
			s-1.6-0.4-2.5-0.4c-0.5,0-0.9,0-1.3,0.1c-0.4,0.1-0.7,0.2-1,0.4c-0.3,0.1-0.6,0.3-0.9,0.5v3.1c0.3-0.1,0.6-0.2,0.9-0.3
			c0.3-0.1,0.6-0.2,0.9-0.2c0.3-0.1,0.7-0.1,1.1-0.1c0.7,0,1.5,0.1,2.2,0.4c0.8,0.3,1.5,0.6,2.3,1c0.1,0,0.2,0.1,0.3,0.1
			c0.1,0,0.2,0.1,0.3,0.1c-0.4,0.1-0.7,0.3-1.1,0.4c-0.4,0.2-0.7,0.3-1,0.4c-0.9,0.4-2,0.7-3.1,0.8s-2.4,0.3-3.8,0.3H251
			c-0.4,0-0.8,0-1-0.1c-0.3-0.1-0.5-0.2-0.7-0.4c-0.2-0.2-0.4-0.5-0.7-0.9c-0.2-0.4-0.5-0.9-0.8-1.5c-0.6-1.1-1.2-2-1.8-2.6
			s-1.3-0.9-2.2-0.9c-0.6,0-1.3,0.2-1.8,0.5c-0.6,0.4-1.1,0.8-1.5,1.4c-0.4,0.5-0.8,1.1-1,1.8c-0.2,0.7-0.4,1.3-0.4,1.9v0.1
			c-0.2,0.3-0.6,0.4-1.1,0.5s-0.9,0.2-1.4,0.2h-3.1c-0.2,0-0.5,0-0.7,0s-0.4,0-0.6,0c0.9-0.7,1.6-1.3,2.1-2c0.5-0.6,0.8-1.1,0.9-1.4
			c0.1-0.1,0.1-0.3,0.1-0.6c0-0.3,0-0.5,0.1-0.8c0-0.3,0-0.5,0-0.8s0-0.5,0-0.6c-0.4-0.3-1.2-0.5-2.1-0.7c-1-0.2-2.1-0.3-3.5-0.3
			c-0.7,0-1.3,0-2,0.1s-1.3,0.2-1.9,0.3c-0.6,0.1-1.1,0.2-1.6,0.4c-0.5,0.1-0.8,0.2-1,0.3v3c0.6,0.4,1.2,0.9,1.8,1.5
			s1.2,1.1,1.7,1.6c-0.4,0-0.8,0.1-1.2,0.1s-0.8,0-1.3,0h-2c-0.5,0-1,0-1.6-0.1c-0.5-0.1-1-0.2-1.3-0.4l0.4-4.7h-3
			c0,0.2,0,0.5-0.1,0.9c0,0.4-0.1,0.8-0.1,1.2c0,0.4-0.1,0.8-0.1,1.2c-0.1,0.4-0.1,0.7-0.1,0.9c0,0.1-0.1,0.2-0.2,0.3
			c-0.1,0.1-0.2,0.2-0.4,0.3c-0.2,0.1-0.4,0.2-0.8,0.2c-0.3,0.1-0.6,0.1-1.1,0.1s-0.9-0.1-1.2-0.2s-0.6-0.3-0.8-0.5
			s-0.3-0.5-0.4-0.9c-0.1-0.3-0.1-0.7-0.1-1.2v-7.1l-3,0.2v1.6c-0.5,0.2-1,0.5-1.6,0.7c-0.5,0.3-1,0.6-1.5,0.9s-0.9,0.7-1.4,1
			c-0.4,0.4-0.8,0.8-1.1,1.2c-0.2,0.3-0.4,0.7-0.5,1c-0.1,0.4-0.1,0.8-0.1,1.2c0,0.4,0,0.8,0.1,1.2c0.1,0.4,0.2,0.7,0.4,1
			c0.3,0.5,0.8,0.9,1.3,1.2c0.6,0.3,1.2,0.4,2,0.4s1.5-0.1,2-0.3c0.5-0.2,0.9-0.4,1.1-0.6c0.4,0.9,0.9,1.5,1.7,2
			c0.7,0.4,1.6,0.6,2.8,0.6h0.1h0.1h0.1h0.1c0.6,0,1.2-0.1,1.7-0.2c0.5-0.2,1-0.4,1.3-0.7c0.2-0.1,0.3-0.2,0.4-0.3
			c0.1-0.1,0.2-0.3,0.3-0.4c0.5,0.7,1.2,1.2,2,1.4c0.8,0.2,1.6,0.3,2.4,0.3l0,0h0.4c1.3,0,2.5-0.1,3.5-0.4c1.1-0.3,2.1-0.7,3-1.1
			c0.4,0.3,0.8,0.5,1.1,0.7c0.4,0.2,0.8,0.4,1.3,0.5s1,0.2,1.5,0.3c0.5,0.1,1.2,0.1,1.9,0.1h1.7c0.8,0,1.5-0.2,1.9-0.5
			c0.5-0.3,0.9-0.7,1.1-1.2c0.3,0.6,0.8,1,1.4,1.3c0.6,0.3,1.3,0.5,2.2,0.5c0.5,0,1-0.1,1.4-0.2s0.8-0.2,1.1-0.4
			c0.3-0.2,0.6-0.3,0.8-0.5s0.4-0.3,0.5-0.4c0.4,0.5,0.9,0.8,1.4,1s1.2,0.3,2,0.3h0.4h0.3c0.8,0,1.6,0,2.3-0.1s1.4-0.2,2-0.4
			c0.6-0.2,1.3-0.4,1.9-0.7c0.6-0.3,1.2-0.6,1.9-1c0.9-0.5,1.7-1,2.5-1.4s1.5-0.7,2.2-0.9c0,0.6,0.1,1.2,0.3,1.8
			c0.2,0.6,0.4,1,0.7,1.4c0.3,0.4,0.8,0.7,1.3,1c0.5,0.2,1.2,0.4,2,0.4h0.5c1,0,1.7-0.1,2.3-0.3c0.6-0.2,1-0.4,1.3-0.7
			c0.6-0.4,1-1.1,1.4-1.9s0.6-1.9,0.6-3.2V99.3l-3.1,0.2v13.8H271.4z M207.7,112.5c-0.4,0.1-0.8,0.1-1.3,0.1c-0.6,0-1.1-0.1-1.5-0.2
			c-0.4-0.2-0.6-0.3-0.6-0.5s0.3-0.6,1-1.1s1.8-1,3.2-1.5c0,0.3,0,0.5,0,0.8c0,0.2,0,0.4,0,0.6c0,0.3,0,0.6,0,0.8
			c0,0.3,0,0.5,0.1,0.8C208.4,112.4,208,112.4,207.7,112.5z M229.7,113.2c-0.2-0.1-0.4-0.3-0.6-0.5c-0.2-0.2-0.5-0.4-0.7-0.6
			c-0.3-0.3-0.6-0.5-1-0.8s-0.7-0.6-1-0.9c0.5-0.1,1-0.2,1.6-0.3c0.6-0.1,1.2-0.1,1.8-0.1c0.7,0,1.4,0,2,0.1s1.1,0.2,1.6,0.3
			c-0.4,0.6-0.9,1.1-1.6,1.6C231.1,112.5,230.4,112.9,229.7,113.2z M244.7,114.3c-0.4,0.1-0.9,0.1-1.4,0.1s-0.9,0-1.2-0.1
			s-0.6-0.2-0.7-0.3c-0.2-0.1-0.3-0.2-0.3-0.3c-0.1-0.1-0.1-0.2-0.1-0.3c0-0.2,0.1-0.4,0.1-0.6c0.1-0.2,0.2-0.5,0.4-0.7
			s0.4-0.4,0.7-0.5c0.3-0.2,0.6-0.2,0.9-0.2c0.6,0,1.1,0.3,1.4,0.8c0.4,0.5,0.8,1.2,1.2,1.9C245.4,114.1,245.1,114.2,244.7,114.3z"
			/>
		<polygon class="st1" points="280.3,99.3 277.2,99.5 277.2,117.7 280.3,117.7 		"/>
		<path class="st1" d="M10.5,134.6c-0.8,0-1.5,0.1-2.1,0.4c-0.6,0.2-1.1,0.6-1.5,1s-0.7,0.9-1,1.5c-0.2,0.6-0.3,1.3-0.3,2
			c0,0.8,0.1,1.4,0.3,2c0.2,0.6,0.6,1,1,1.4s0.9,0.7,1.5,0.8c0.6,0.2,1.2,0.3,2,0.3c0.6,0,1.2-0.1,1.7-0.2c0.5-0.1,0.9-0.3,1.2-0.4
			v-1.8c-0.5,0.3-0.9,0.5-1.3,0.6c-0.4,0.1-0.8,0.1-1.3,0.1c-0.8,0-1.5-0.3-2-0.8s-0.8-1.3-0.8-2.3c0-0.5,0.1-0.9,0.2-1.3
			c0.1-0.4,0.3-0.7,0.6-0.9c0.2-0.2,0.5-0.4,0.8-0.5s0.7-0.2,1-0.2c0.5,0,0.9,0,1.4,0.1c0.4,0.1,0.9,0.3,1.3,0.6v-1.9
			c-0.3-0.1-0.7-0.2-1.1-0.3C11.7,134.6,11.2,134.6,10.5,134.6z"/>
		<polygon class="st1" points="21.2,138.3 17.1,138.3 17.1,134.7 14.9,134.7 14.9,143.8 17.1,143.8 17.1,140 21.2,140 21.2,143.8 
			23.3,143.8 23.3,134.7 21.2,134.7 		"/>
		<path class="st1" d="M28,134.7l-3.6,9.1h2.1l0.8-2.2h3.1l0.6,2.2h2.3l-3.1-9.1H28z M27.8,140l0.3-0.8l0.8-2.2H29l0.6,2.2l0.2,0.8
			H27.8z"/>
		<path class="st1" d="M41.2,139.2c0.3-0.5,0.4-1,0.4-1.5s-0.1-0.9-0.2-1.3c-0.2-0.4-0.4-0.7-0.7-1s-0.6-0.4-1.1-0.6
			c-0.4-0.1-0.9-0.2-1.4-0.2h-3.6v9.1h2.2v-2.9h0.8c0.1,0,0.2,0,0.3,0s0.2,0,0.3,0l1.6,2.9h2.5l-2.2-3.5
			C40.5,140.1,40.9,139.7,41.2,139.2z M38.7,139c-0.4,0.2-0.9,0.3-1.6,0.3h-0.3v-3h0.4c0.7,0,1.2,0.1,1.5,0.4
			c0.3,0.2,0.5,0.6,0.5,1.1C39.3,138.4,39.1,138.8,38.7,139z"/>
		<rect x="43.5" y="134.7" class="st1" width="2.2" height="9.1"/>
		<polygon class="st1" points="47,136.4 50,136.4 50,143.8 52.2,143.8 52.2,136.4 55.3,136.4 55.3,134.7 47,134.7 		"/>
		<polygon class="st1" points="61.1,137.1 60.2,138.9 60.2,138.9 59.3,137.1 58.1,134.7 55.6,134.7 58.9,140.6 58.9,143.8 
			61.1,143.8 61.1,140.6 64.6,134.7 62.3,134.7 		"/>
		<path class="st1" d="M72.8,134.6c-0.8,0-1.5,0.1-2.1,0.4c-0.6,0.2-1.1,0.6-1.5,1s-0.7,0.9-1,1.5c-0.2,0.6-0.3,1.3-0.3,2
			c0,0.8,0.1,1.4,0.3,2c0.2,0.6,0.6,1,1,1.4s0.9,0.7,1.5,0.8c0.6,0.2,1.2,0.3,2,0.3c0.6,0,1.2-0.1,1.7-0.2c0.5-0.1,0.9-0.3,1.2-0.4
			v-1.8c-0.5,0.3-0.9,0.5-1.3,0.6s-0.8,0.1-1.3,0.1c-0.8,0-1.5-0.3-2-0.8s-0.8-1.3-0.8-2.3c0-0.5,0.1-0.9,0.2-1.3
			c0.1-0.4,0.3-0.7,0.6-0.9c0.2-0.2,0.5-0.4,0.8-0.5s0.7-0.2,1-0.2c0.5,0,0.9,0,1.4,0.1c0.4,0.1,0.9,0.3,1.3,0.6v-1.9
			c-0.3-0.1-0.7-0.2-1.1-0.3C74.1,134.6,73.5,134.6,72.8,134.6z"/>
		<path class="st1" d="M84.6,135.8c-0.4-0.4-0.8-0.7-1.4-0.9s-1.2-0.3-1.9-0.3c-0.7,0-1.4,0.1-2,0.4c-0.6,0.2-1.1,0.6-1.5,1
			s-0.7,1-0.9,1.6s-0.3,1.3-0.3,2s0.1,1.3,0.3,1.8c0.2,0.6,0.5,1,0.8,1.4c0.4,0.4,0.8,0.7,1.4,0.9s1.2,0.3,1.9,0.3
			c0.8,0,1.4-0.1,2-0.4c0.6-0.3,1.1-0.6,1.5-1.1s0.7-1,0.9-1.6c0.2-0.6,0.3-1.2,0.3-1.9c0-0.6-0.1-1.2-0.3-1.8
			C85.2,136.7,85,136.2,84.6,135.8z M83.2,140.5c-0.1,0.4-0.2,0.7-0.4,1c-0.2,0.3-0.4,0.5-0.7,0.6c-0.3,0.2-0.6,0.2-1,0.2
			s-0.7-0.1-1-0.2c-0.3-0.2-0.5-0.4-0.7-0.7s-0.3-0.6-0.4-1s-0.1-0.8-0.1-1.3c0-0.9,0.2-1.6,0.6-2.2c0.4-0.5,0.9-0.8,1.7-0.8
			c0.7,0,1.3,0.3,1.7,0.8c0.4,0.5,0.5,1.3,0.5,2.3C83.4,139.7,83.3,140.2,83.2,140.5z"/>
		<polygon class="st1" points="94.7,134.7 93.4,138.4 92.7,140.4 92.6,140.4 91.9,138.5 90.6,134.7 87.9,134.7 86.8,143.8 
			88.8,143.8 89.2,140.6 89.4,138.1 89.5,138.1 90.3,140.5 91.5,143.8 93.2,143.8 94.4,140.6 95.3,138.1 95.4,138.1 95.6,140.6 
			96,143.8 98.2,143.8 97.2,134.7 		"/>
		<polygon class="st1" points="107.4,134.7 106.1,138.4 105.4,140.4 105.3,140.4 104.6,138.5 103.3,134.7 100.6,134.7 99.5,143.8 
			101.5,143.8 101.9,140.6 102.1,138.1 102.2,138.1 103,140.5 104.2,143.8 105.9,143.8 107.1,140.6 108,138.1 108.1,138.1 
			108.3,140.6 108.7,143.8 110.9,143.8 109.9,134.7 		"/>
		<polygon class="st1" points="111.5,136.4 114.5,136.4 114.5,143.8 116.7,143.8 116.7,136.4 119.8,136.4 119.8,134.7 111.5,134.7 
					"/>
		<polygon class="st1" points="120.3,136.4 123.3,136.4 123.3,143.8 125.5,143.8 125.5,136.4 128.6,136.4 128.6,134.7 120.3,134.7 
					"/>
		<polygon class="st1" points="132.1,140 135.3,140 135.3,138.4 132.1,138.4 132.1,136.4 136,136.4 136,134.7 129.9,134.7 
			129.9,143.8 136.1,143.8 136.1,142.2 132.1,142.2 		"/>
		<polygon class="st1" points="140,140 143.2,140 143.2,138.4 140,138.4 140,136.4 143.9,136.4 143.9,134.7 137.8,134.7 
			137.8,143.8 144,143.8 144,142.2 140,142.2 		"/>
		<polygon class="st1" points="149.4,143.8 151.5,143.8 151.5,140.5 154.8,140.5 154.8,138.9 151.5,138.9 151.5,136.4 155.5,136.4 
			155.5,134.7 149.4,134.7 		"/>
		<path class="st1" d="M164.4,135.8c-0.4-0.4-0.8-0.7-1.4-0.9c-0.6-0.2-1.2-0.3-1.9-0.3s-1.4,0.1-2,0.4c-0.6,0.2-1.1,0.6-1.5,1
			s-0.7,1-0.9,1.6s-0.3,1.3-0.3,2s0.1,1.3,0.3,1.8c0.2,0.6,0.5,1,0.8,1.4c0.4,0.4,0.8,0.7,1.4,0.9c0.6,0.2,1.2,0.3,1.9,0.3
			c0.8,0,1.4-0.1,2-0.4c0.6-0.3,1.1-0.6,1.5-1.1s0.7-1,0.9-1.6s0.3-1.2,0.3-1.9c0-0.6-0.1-1.2-0.3-1.8
			C165,136.7,164.7,136.2,164.4,135.8z M163,140.5c-0.1,0.4-0.2,0.7-0.4,1s-0.4,0.5-0.7,0.6c-0.3,0.2-0.6,0.2-1,0.2s-0.7-0.1-1-0.2
			c-0.3-0.2-0.5-0.4-0.7-0.7s-0.3-0.6-0.4-1c-0.1-0.4-0.1-0.8-0.1-1.3c0-0.9,0.2-1.6,0.6-2.2c0.4-0.5,0.9-0.8,1.7-0.8
			c0.7,0,1.3,0.3,1.7,0.8s0.5,1.3,0.5,2.3C163.2,139.7,163.1,140.2,163,140.5z"/>
		<path class="st1" d="M173.7,139.2c0.3-0.5,0.4-1,0.4-1.5s-0.1-0.9-0.2-1.3c-0.2-0.4-0.4-0.7-0.7-1s-0.6-0.4-1.1-0.6
			c-0.4-0.1-0.9-0.2-1.4-0.2h-3.6v9.1h2.2v-2.9h0.8c0.1,0,0.2,0,0.3,0s0.2,0,0.3,0l1.6,2.9h2.5l-2.2-3.5
			C173,140.1,173.4,139.7,173.7,139.2z M171.2,139c-0.4,0.2-0.9,0.3-1.6,0.3h-0.3v-3h0.4c0.7,0,1.2,0.1,1.5,0.4
			c0.3,0.2,0.5,0.6,0.5,1.1C171.8,138.4,171.6,138.8,171.2,139z"/>
		<path class="st1" d="M187.2,135.8c-0.4-0.4-0.8-0.7-1.4-0.9c-0.6-0.2-1.2-0.3-1.9-0.3s-1.4,0.1-2,0.4c-0.6,0.2-1.1,0.6-1.5,1
			s-0.7,1-0.9,1.6s-0.3,1.3-0.3,2s0.1,1.3,0.3,1.8c0.2,0.6,0.5,1,0.9,1.4s0.8,0.7,1.4,0.9c0.5,0.2,1.2,0.3,1.9,0.3
			c0.8,0,1.4-0.1,2-0.4c0.6-0.3,1.1-0.6,1.5-1.1s0.7-1,0.9-1.6s0.3-1.2,0.3-1.9c0-0.6-0.1-1.2-0.3-1.8
			C187.8,136.7,187.6,136.2,187.2,135.8z M185.9,140.5c-0.1,0.4-0.2,0.7-0.4,1s-0.4,0.5-0.7,0.6s-0.6,0.2-1,0.2s-0.7-0.1-1-0.2
			c-0.3-0.2-0.5-0.4-0.7-0.7s-0.3-0.6-0.4-1c-0.1-0.4-0.1-0.8-0.1-1.3c0-0.9,0.2-1.6,0.6-2.2c0.4-0.5,0.9-0.8,1.7-0.8
			c0.7,0,1.3,0.3,1.7,0.8s0.5,1.3,0.5,2.3C186,139.7,185.9,140.2,185.9,140.5z"/>
		<path class="st1" d="M196.5,139.2c0.3-0.5,0.4-1,0.4-1.5s-0.1-0.9-0.2-1.3c-0.2-0.4-0.4-0.7-0.7-1s-0.6-0.4-1.1-0.6
			c-0.4-0.1-0.9-0.2-1.4-0.2h-3.6v9.1h2.2v-2.9h0.8c0.1,0,0.2,0,0.3,0s0.2,0,0.3,0l1.6,2.9h2.5l-2.2-3.5
			C195.8,140.1,196.2,139.7,196.5,139.2z M194,139c-0.4,0.2-0.9,0.3-1.6,0.3h-0.3v-3h0.4c0.7,0,1.2,0.1,1.5,0.4
			c0.3,0.2,0.5,0.6,0.5,1.1C194.6,138.4,194.4,138.8,194,139z"/>
		<path class="st1" d="M204.8,135.5c-0.3-0.3-0.6-0.4-1.1-0.6c-0.4-0.1-0.9-0.2-1.4-0.2h-3.6v9.1h2.2v-2.9h0.8
			c0.7,0,1.2-0.1,1.7-0.3s0.9-0.4,1.2-0.7s0.6-0.6,0.7-1s0.2-0.8,0.2-1.2c0-0.5-0.1-0.9-0.2-1.3
			C205.3,136.1,205.1,135.8,204.8,135.5z M203.3,138.5c-0.1,0.2-0.2,0.3-0.4,0.5c-0.2,0.1-0.4,0.2-0.7,0.2s-0.6,0.1-0.9,0.1H201v-3
			h0.4c0.7,0,1.2,0.1,1.5,0.4c0.3,0.2,0.5,0.6,0.5,1.1C203.5,138.1,203.4,138.3,203.3,138.5z"/>
		<polygon class="st1" points="213.5,138.3 209.4,138.3 209.4,134.7 207.2,134.7 207.2,143.8 209.4,143.8 209.4,140 213.5,140 
			213.5,143.8 215.7,143.8 215.7,134.7 213.5,134.7 		"/>
		<path class="st1" d="M220.3,134.7l-3.6,9.1h2.1l0.8-2.2h3.1l0.6,2.2h2.3l-3.1-9.1H220.3z M220.2,140l0.3-0.8l0.8-2.2h0.1l0.6,2.2
			l0.2,0.8H220.2z"/>
		<polygon class="st1" points="233.3,140.3 233.2,140.3 228.8,134.7 226.9,134.7 226.9,143.8 228.9,143.8 228.9,138.2 229,138.2 
			233.4,143.8 235.2,143.8 235.2,134.7 233.3,134.7 		"/>
		<path class="st1" d="M242.6,139.2c-0.3-0.2-0.6-0.4-0.9-0.5c-0.3-0.1-0.7-0.3-1-0.4c-0.5-0.2-1-0.3-1.2-0.5
			c-0.3-0.2-0.4-0.4-0.4-0.7c0-0.1,0-0.3,0.1-0.4c0.1-0.1,0.2-0.2,0.3-0.3s0.3-0.1,0.5-0.2s0.4-0.1,0.6-0.1c0.5,0,1,0.1,1.5,0.2
			c0.5,0.1,0.9,0.3,1.2,0.5V135c-0.3-0.2-0.7-0.3-1.2-0.4c-0.5-0.1-1.1-0.2-1.6-0.2c-0.4,0-0.9,0.1-1.3,0.2
			c-0.4,0.1-0.8,0.3-1.1,0.6c-0.3,0.2-0.5,0.5-0.7,0.9s-0.3,0.8-0.3,1.2s0.1,0.7,0.2,1c0.1,0.3,0.3,0.5,0.5,0.7s0.4,0.4,0.7,0.5
			s0.6,0.3,0.9,0.4c0.3,0.1,0.6,0.2,0.9,0.3c0.3,0.1,0.5,0.2,0.7,0.3s0.4,0.2,0.5,0.3s0.2,0.3,0.2,0.5c0,0.3-0.1,0.5-0.4,0.7
			c-0.3,0.2-0.6,0.2-1,0.2c-0.2,0-0.5,0-0.8-0.1c-0.3,0-0.5-0.1-0.8-0.1c-0.3-0.1-0.5-0.1-0.8-0.2c-0.2-0.1-0.5-0.2-0.6-0.3v1.8
			c0.5,0.2,0.9,0.3,1.4,0.4c0.5,0.1,0.9,0.1,1.4,0.1s1-0.1,1.4-0.2c0.4-0.1,0.8-0.3,1.2-0.5c0.3-0.2,0.6-0.5,0.8-0.9
			s0.3-0.8,0.3-1.3s-0.1-0.8-0.3-1.2S242.8,139.4,242.6,139.2z"/>
		<path class="st1" d="M253.2,134.6c-0.8,0-1.5,0.1-2.1,0.4c-0.6,0.2-1.1,0.6-1.5,1s-0.7,0.9-1,1.5c-0.2,0.6-0.3,1.3-0.3,2
			c0,0.8,0.1,1.4,0.3,2s0.6,1,1,1.4s0.9,0.7,1.5,0.8c0.6,0.2,1.2,0.3,2,0.3c0.6,0,1.2-0.1,1.7-0.2c0.5-0.1,0.9-0.3,1.2-0.4v-1.8
			c-0.5,0.3-0.9,0.5-1.3,0.6c-0.4,0.1-0.8,0.1-1.3,0.1c-0.8,0-1.5-0.3-2-0.8s-0.8-1.3-0.8-2.3c0-0.5,0.1-0.9,0.2-1.3
			s0.3-0.7,0.6-0.9c0.2-0.2,0.5-0.4,0.8-0.5s0.7-0.2,1-0.2c0.5,0,0.9,0,1.4,0.1c0.4,0.1,0.9,0.3,1.3,0.6v-1.9
			c-0.3-0.1-0.7-0.2-1.1-0.3C254.5,134.6,253.9,134.6,253.2,134.6z"/>
		<path class="st1" d="M260.1,134.7l-3.6,9.1h2.1l0.8-2.2h3.1l0.6,2.2h2.3l-3.1-9.1H260.1z M260,140l0.3-0.8l0.8-2.2h0.1l0.6,2.2
			l0.2,0.8H260z"/>
		<path class="st1" d="M273.3,139.2c0.3-0.5,0.4-1,0.4-1.5s-0.1-0.9-0.2-1.3c-0.2-0.4-0.4-0.7-0.7-1c-0.3-0.3-0.6-0.4-1.1-0.6
			c-0.4-0.1-0.9-0.2-1.4-0.2h-3.6v9.1h2.2v-2.9h0.8c0.1,0,0.2,0,0.3,0s0.2,0,0.3,0l1.6,2.9h2.5l-2.2-3.5
			C272.6,140.1,273,139.7,273.3,139.2z M270.8,139c-0.4,0.2-0.9,0.3-1.6,0.3h-0.3v-3h0.4c0.7,0,1.2,0.1,1.5,0.4
			c0.3,0.2,0.5,0.6,0.5,1.1C271.4,138.4,271.2,138.8,270.8,139z"/>
		<polygon class="st1" points="277.8,142.2 277.8,140 281,140 281,138.4 277.8,138.4 277.8,136.4 281.7,136.4 281.7,134.7 
			275.6,134.7 275.6,143.8 281.8,143.8 281.8,142.2 		"/>
	</g>
</g>
</svg>
